<?xml version="1.0" standalone="no"?>
<!DOCTYPE svg PUBLIC "-//W3C//DTD SVG 20010904//EN"
 "http://www.w3.org/TR/2001/REC-SVG-20010904/DTD/svg10.dtd">
<svg version="1.0" xmlns="http://www.w3.org/2000/svg"
 width="900.000000pt" height="900.000000pt" viewBox="0 0 900.000000 900.000000"
 preserveAspectRatio="xMidYMid meet">
<metadata>
Created by potrace 1.14, written by Peter Selinger 2001-2017
</metadata>
<g transform="translate(0.000000,900.000000) scale(0.100000,-0.100000)"
fill="#000000" stroke="none">
<path d="M2929 7026 c-2 -3 -33 -7 -69 -10 -193 -18 -492 -90 -637 -153 -21
-9 -40 -17 -43 -18 -39 -9 -295 -139 -370 -189 -108 -71 -202 -137 -222 -156
-9 -8 -31 -26 -50 -40 -55 -41 -299 -291 -357 -365 -65 -85 -161 -227 -197
-292 -15 -26 -38 -68 -51 -93 -77 -138 -174 -398 -213 -565 -29 -126 -31 -135
-36 -179 -3 -22 -7 -42 -9 -45 -10 -17 -20 -189 -20 -351 0 -232 11 -344 51
-525 9 -38 18 -81 20 -95 11 -55 96 -292 142 -396 81 -181 181 -347 311 -514
90 -117 307 -332 421 -418 52 -40 100 -75 105 -80 54 -41 233 -145 335 -194
217 -105 460 -183 667 -214 21 -3 49 -7 63 -10 14 -2 52 -7 85 -12 79 -9 3310
-9 3395 1 36 4 76 9 90 11 14 3 42 7 62 10 144 22 425 103 547 158 86 38 206
97 246 120 47 27 196 119 210 130 6 4 53 40 105 80 83 63 374 338 357 338 -4
0 6 13 21 29 107 112 296 420 373 606 4 11 17 40 27 65 25 58 69 195 97 300 3
12 26 118 30 140 3 14 7 36 10 50 21 102 30 230 30 415 0 163 -6 277 -20 345
-2 14 -7 41 -9 60 -5 41 -9 60 -31 154 -9 38 -18 77 -20 85 -23 117 -143 408
-233 566 -19 33 -40 69 -46 80 -42 74 -197 282 -255 342 -17 18 -31 38 -31 45
0 6 -2 9 -5 7 -2 -3 -46 36 -98 85 -94 92 -157 147 -231 201 -23 16 -43 32
-46 35 -9 10 -144 96 -190 121 -25 13 -47 27 -50 30 -9 11 -213 106 -305 142
-78 30 -179 62 -305 97 -60 17 -191 40 -305 55 -90 11 -409 14 -1726 14 -889
1 -1618 -1 -1620 -3z"/>
</g>
</svg>
